<svg clip-rule="evenodd" fill-rule="evenodd" stroke-linejoin="round" stroke-miterlimit="2" viewBox="0 0 2880 1800" xmlns="http://www.w3.org/2000/svg" xmlns:xlink="http://www.w3.org/1999/xlink"><linearGradient id="a" gradientTransform="matrix(2544.6 -1338.12 1338.12 2544.6 19.6409 1383.77)" gradientUnits="userSpaceOnUse" x1="0" x2="1" y1="0" y2="0"><stop offset="0" stop-color="#0d398c"/><stop offset="1" stop-color="#001947"/></linearGradient><linearGradient id="b" gradientTransform="matrix(2144.76 1346.27 -1346.27 2144.76 558.486 237.209)" gradientUnits="userSpaceOnUse" x1="0" x2="1" y1="0" y2="0"><stop offset="0" stop-color="#0d8c30" stop-opacity=".5"/><stop offset="1" stop-color="#a427aa" stop-opacity=".5"/></linearGradient><path d="m0 0h2880v1800h-2880z" fill="url(#a)"/><path d="m0 0h2880v1800h-2880z" fill="url(#b)"/><path d="m.139-.128c-.051 0-.076-.026-.076-.076v-.296c0-.049.025-.074.076-.074h.419c.05 0 .076.025.076.074v.296c0 .05-.026.076-.076.076zm.105-.217c.033 0 .06-.027.06-.06s-.027-.06-.06-.06-.059.027-.059.06.026.06.059.06zm-.103.171h.415c.02 0 .032-.013.032-.032v-.044l-.105-.095c-.01-.01-.025-.016-.038-.016-.014 0-.028.006-.039.016l-.115.102-.047-.042c-.011-.009-.023-.014-.035-.014-.011 0-.022.005-.033.014l-.068.057v.022c0 .019.013.032.033.032z" fill="#fff" fill-rule="nonzero" transform="matrix(1618.29286047 0 0 1618.29286047 876.1998137 1468.53212002)"/></svg>